<svg xmlns="http://www.w3.org/2000/svg" viewBox="0 0 135.6 146" stroke="#FFF" stroke-width=".15" fill="none"><path d="M19.1 132.2l63.6-31.8 37.2-3 15.4-5.1M34 102.8l33.4-38.6 7.5-36.4-8-27.8" fill="none" stroke="#FFF" stroke-width=".15"/><path d="M34.6 124.4l21.8-.4 20 12.7 34.6-7.9 24 13m-52.3-41.4L100.8 76l19.7-15.4m-53.1 3.6l21.9-26.5 22.3-9.4.9-28.2m-.9 28.2l24-25.9m-34.8 73.7l19.7-2.6M71.8 17L75.4.1m36.8 10.6L120.9.2m-1.7 133l16.1-7.4M25.2 113.7l4.5-40.4L14 44l4-27L0 .1m130.1 8.1l5.2-1.4" fill="none" stroke="#FFF" stroke-width=".15"/><path d="M20.3 55.7l8.3-19.3-2.4-11.9L29.5.2m45.4 27.6L95.8 7 94 .1M120 97.4l14.8 1.5m.4-66.9l-5.2 4.5-9.5 24.2 14.9-9.5m-14.9 22.3l14.6 5M34 102.8l-8.8 10.9-6 18.5-3.9 13.8" fill="none" stroke="#FFF" stroke-width=".15"/></svg>