<svg viewBox="0 0 176.9 148.5">
  <g stroke="#000000" stroke-width=".15" fill="none">
    <path d="M1 93.8l29.6-13L81 30.7l7.1-20C88.8 7 89.5 3.4 90.4 0"/>
    <path d="M81 30.6L61.6 77.8l4.4 36.8 22.3 33.5M68.7 43L48 50.1l-23-5.7L1.4 57.8M30.6 80.9l-17.7 21.6-5.6 28M61.6 77.8l-12.4 32-18.2 16 6.6 22.2M31 125.8l-9.6 16.5-3.7 6.2M10.7 113.3l-9.9 5.5M72.4 124l2.4 24.2M36 142.6l-5 5.9M86 17.4l8.4 39.8L118.7 80l12.5 31 31.9 17.4M21.4 142.3L11 148.4"/>
    <path d="M108.9 70.9l-1.7 21 6 10.4 6.2 36.5M66 114.6L52.7 141l4.9 7.5M119.4 138.8l-7 9.4M146 119l3.1 29.4M163 128.4l13.9 19.9M7.3 130.5l-7.2 8.4"/>
  </g>
</svg>