<?xml version="1.0" encoding="UTF-8" standalone="no"?>
<svg
   xmlns:dc="http://purl.org/dc/elements/1.1/"
   xmlns:cc="http://creativecommons.org/ns#"
   xmlns:rdf="http://www.w3.org/1999/02/22-rdf-syntax-ns#"
   xmlns:svg="http://www.w3.org/2000/svg"
   xmlns="http://www.w3.org/2000/svg"
   id="svg14"
   version="1.1"
   viewBox="0 0 135.6 146">
  <metadata
     id="metadata20">
    <rdf:RDF>
      <cc:Work
         rdf:about="">
        <dc:format>image/svg+xml</dc:format>
        <dc:type
           rdf:resource="http://purl.org/dc/dcmitype/StillImage" />
        <dc:title></dc:title>
      </cc:Work>
    </rdf:RDF>
  </metadata>
  <defs
     id="defs18" />
  <path
     d="m 19.1,132.2 63.6,-31.8 37.2,-3 15.4,-5.1 M 34,102.8 67.4,64.2 74.9,27.8 66.9,0"
     id="path2"
     style="fill:none;stroke:#000000;stroke-width:0.15000001;stroke-opacity:1" />
  <path
     d="m 34.6,124.4 21.8,-0.4 20,12.7 34.6,-7.9 24,13 M 82.7,100.4 100.8,76 120.5,60.6 m -53.1,3.6 21.9,-26.5 22.3,-9.4 0.9,-28.2 m -0.9,28.2 24,-25.9 m -34.8,73.7 19.7,-2.6 M 71.8,17 75.4,0.1 m 36.8,10.6 8.7,-10.5 m -1.7,133 16.1,-7.4 M 25.2,113.7 29.7,73.3 14,44 18,17 0,0.1 m 130.1,8.1 5.2,-1.4"
     id="path4"
     style="fill:none;stroke:#000000;stroke-width:0.15000001;stroke-opacity:1" />
  <path
     d="M 20.3,55.7 28.6,36.4 26.2,24.5 29.5,0.2 M 74.9,27.8 95.8,7 94,0.1"
     id="path6"
     style="fill:none;stroke:#000000;stroke-width:0.15000001;stroke-opacity:1" />
  <path
     d="m 120,97.4 14.8,1.5 m 0.4,-66.9 -5.2,4.5 -9.5,24.2 14.9,-9.5 m -14.9,22.3 14.6,5"
     id="path8"
     style="fill:none;stroke:#000000;stroke-width:0.15000001;stroke-opacity:1" />
  <path
     d="m 34,102.8 -8.8,10.9 -6,18.5 -3.9,13.8"
     id="path10"
     style="fill:none;stroke:#000000;stroke-width:0.15000001;stroke-opacity:1" />
</svg>
