<svg xmlns="http://www.w3.org/2000/svg" viewBox="0 0 210 297"><g stroke-width=".15" stroke="#000000" fill="none"><path d="M93.916 131.97l63.549-31.82 37.23-3.024 15.406-5.082M108.857 102.531l33.33-38.59 7.484-36.349-8.018-27.796" /><path d="M109.344 124.128l21.852-.354 20.032 12.662 34.599-7.816 23.931 12.97M157.465 100.15l18.133-24.257 19.664-15.43M142.187 63.941l21.855-26.422 22.3-9.45.945-28.158M186.342 28.07l24.002-25.891M175.598 75.893l19.664-2.58M146.56 16.683L150.151.005M186.956 10.494L195.65-.018M193.963 132.961l16.17-7.435M99.992 113.453l4.51-40.425-15.769-29.266 3.876-26.86L74.835-.07M204.929 8.015l5.111-1.403" /><path d="M95.132 55.52l8.234-19.375-2.338-11.827L104.302-.07M149.67 27.592L170.563 6.81 168.766-.09" /><path d="M.002 242.554l29.539-12.935 50.36-50.28 7.15-20.07 5.059-21.685 7.882-24.131 8.865-10.922M79.902 179.338l-19.398 47.158 4.409 36.848 22.353 33.45" /><path d="M67.595 191.64l-20.615 7.254-23.011-5.669L.308 206.502M29.541 229.619L11.86 251.26l-5.607 27.972M60.504 226.496l-12.365 31.981-18.162 16.024 6.549 22.199M29.977 274.501l-9.663 16.519-3.637 6.218M9.663 262.026l-9.884 5.55M71.317 272.707l2.41 24.24M34.959 291.367l-4.985 5.842M84.853 166.172l8.52 39.773 24.224 22.768 12.511 31.05 31.921 17.353M20.3 291.006l-10.218 6.14" /><path d="M107.805 219.586l-1.677 20.985 5.962 10.478 6.287 36.465M64.913 263.344l-13.236 26.328 4.822 7.445" /><path d="M118.377 287.514c-1.246 1.602-7.06 9.42-7.06 9.42M144.86 267.734l3.207 29.4M162.03 277.116L175.796 297M6.253 279.232l-7.255 8.414M194.696 97.126l14.843 1.56M209.947 31.821l-5.16 4.432-9.525 24.21 14.883-9.46M195.262 73.314l14.619 5.008" /></g></svg>